# xmcd CD database file
#
# Track frame offsets:
#	150
#	14544
#	112899
#
# Disc length: 3478 seconds
#
# Revision: 0
# Processed by: cddbd v1.5.2PL0 Copyright (c) Steve Scherf et al.
# Submitted via: CDex 1.70beta3
#
DISCID=1a0d9403
DTITLE=Tyshawn Sorey - The Inner Spectrum of Variable - 1
DYEAR=2016
DGENRE=Jazz
TTITLE0=Movement I (Introduction)
TTITLE1=Movement II
TTITLE2=Movement III
EXTD=YEAR: 2016
EXTT0=
EXTT1=
EXTT2=
PLAYORDER=
